# Blender 3.5.0
# www.blender.org
mtllib asteroid.mtl
o Asteroide
v -0.044580 0.009617 -0.111775
v -0.028204 0.009617 -0.111775
v -0.044580 0.025993 -0.111775
v -0.028204 0.025993 -0.111775
v -0.044580 0.025993 -0.128151
v -0.028204 0.025993 -0.128151
v -0.044580 0.009617 -0.128151
v -0.028204 0.009617 -0.128151
v -0.044580 0.006392 -0.117764
v -0.028204 0.006392 -0.117764
v -0.044580 0.022768 -0.117764
v -0.028204 0.022768 -0.117764
v -0.044580 0.022768 -0.134141
v -0.028204 0.022768 -0.134141
v -0.044580 0.006392 -0.134141
v -0.028204 0.006392 -0.134141
v -0.050676 0.002440 -0.113342
v -0.034300 0.002440 -0.113342
v -0.050676 0.018816 -0.113342
v -0.034300 0.018816 -0.113342
v -0.050676 0.018816 -0.129719
v -0.034300 0.018816 -0.129719
v -0.050676 0.002440 -0.129719
v -0.034300 0.002440 -0.129719
vn -0.0000 -0.0000 1.0000
vn -0.0000 1.0000 -0.0000
vn -0.0000 -0.0000 -1.0000
vn -0.0000 -1.0000 -0.0000
vn 1.0000 -0.0000 -0.0000
vn -1.0000 -0.0000 -0.0000
vt 0.375000 1.000000
vt 0.375000 0.000000
vt 0.625000 1.000000
vt 0.625000 0.000000
vt 0.375000 0.250000
vt 0.625000 0.250000
vt 0.375000 0.500000
vt 0.125000 0.250000
vt 0.625000 0.500000
vt 0.875000 0.250000
vt 0.375000 0.750000
vt 0.125000 0.000000
vt 0.625000 0.750000
vt 0.875000 0.000000
vt 0.375000 1.000000
vt 0.375000 0.000000
vt 0.625000 1.000000
vt 0.625000 0.000000
vt 0.375000 0.250000
vt 0.625000 0.250000
vt 0.375000 0.500000
vt 0.125000 0.250000
vt 0.625000 0.500000
vt 0.875000 0.250000
vt 0.375000 0.750000
vt 0.125000 0.000000
vt 0.625000 0.750000
vt 0.875000 0.000000
vt 0.375000 1.000000
vt 0.375000 0.000000
vt 0.625000 1.000000
vt 0.625000 0.000000
vt 0.375000 0.250000
vt 0.625000 0.250000
vt 0.375000 0.500000
vt 0.125000 0.250000
vt 0.625000 0.500000
vt 0.875000 0.250000
vt 0.375000 0.750000
vt 0.125000 0.000000
vt 0.625000 0.750000
vt 0.875000 0.000000
s 1
usemtl lambert1.001
f 1/2/1 2/4/1 4/6/1 3/5/1
f 3/5/2 4/6/2 6/9/2 5/7/2
f 5/7/3 6/9/3 8/13/3 7/11/3
f 7/11/4 8/13/4 2/3/4 1/1/4
f 2/4/5 8/14/5 6/10/5 4/6/5
f 7/12/6 1/2/6 3/5/6 5/8/6
f 9/16/1 10/18/1 12/20/1 11/19/1
f 11/19/2 12/20/2 14/23/2 13/21/2
f 13/21/3 14/23/3 16/27/3 15/25/3
f 15/25/4 16/27/4 10/17/4 9/15/4
f 10/18/5 16/28/5 14/24/5 12/20/5
f 15/26/6 9/16/6 11/19/6 13/22/6
f 17/30/1 18/32/1 20/34/1 19/33/1
f 19/33/2 20/34/2 22/37/2 21/35/2
f 21/35/3 22/37/3 24/41/3 23/39/3
f 23/39/4 24/41/4 18/31/4 17/29/4
f 18/32/5 24/42/5 22/38/5 20/34/5
f 23/40/6 17/30/6 19/33/6 21/36/6
