# Blender 3.5.0
# www.blender.org
mtllib debris2.mtl
o Debris_2
v 0.007268 0.059625 -0.134304
v 0.010428 0.059625 -0.134304
v 0.007268 0.061543 -0.135134
v 0.010428 0.061543 -0.135134
v 0.007268 0.051627 -0.158040
v 0.010428 0.051627 -0.158040
v 0.007268 0.049709 -0.157209
v 0.010428 0.049709 -0.157209
v 0.006649 0.059859 -0.133305
v 0.006649 0.060961 -0.133782
v 0.006649 0.050232 -0.158564
v 0.033653 0.050232 -0.158564
v 0.006649 0.049130 -0.158087
v 0.033653 0.049130 -0.158087
v 0.019381 0.050232 -0.158564
v 0.019435 0.049130 -0.158087
v 0.023212 0.057169 -0.142542
v 0.023091 0.056044 -0.142118
v 0.006649 0.056332 -0.144473
v 0.033653 0.053099 -0.148919
v 0.033653 0.054246 -0.149293
v 0.023276 0.053265 -0.148537
v 0.006649 0.055221 -0.144018
v 0.023396 0.054393 -0.148953
v 0.021039 0.056202 -0.144774
v 0.020905 0.055076 -0.144352
v 0.022852 0.057303 -0.142230
v 0.022729 0.056185 -0.141791
v 0.017217 0.056966 -0.143010
v 0.017057 0.055845 -0.142577
v 0.026067 0.059859 -0.133305
v 0.026186 0.060961 -0.133782
vn -0.0000 0.3973 0.9177
vn -0.0000 0.9177 -0.3973
vn -0.0000 -0.3973 -0.9177
vn 1.0000 -0.0000 -0.0000
vn -1.0000 -0.0000 -0.0000
vn -0.0000 -0.9177 0.3973
vn 0.7443 -0.3310 -0.5801
vn -0.1492 0.3754 0.9148
vn 0.6900 0.1935 0.6975
vn 0.7442 -0.3073 -0.5930
vn 0.8815 0.0740 0.4663
vn 0.0380 0.3260 0.9446
vt 0.375000 0.000000
vt 0.625000 0.000000
vt 0.375000 0.250000
vt 0.625000 0.250000
vt 0.375000 0.500000
vt 0.125000 0.250000
vt 0.625000 0.500000
vt 0.875000 0.250000
vt 0.375000 0.750000
vt 0.125000 0.000000
vt 0.625000 0.750000
vt 0.875000 0.000000
vt 0.375000 1.000000
vt 0.375000 0.000000
vt 0.375000 0.250000
vt 0.125115 0.249971
vt 0.375086 0.499489
vt 0.625000 0.500000
vt 0.875000 0.250000
vt 0.374480 0.750012
vt 0.125079 0.000012
vt 0.875000 0.000000
vt 0.625000 0.750000
vt 0.492837 0.500050
vt 0.492315 0.755687
vt 0.528335 0.357841
vt 0.527220 0.891624
vt 0.267165 0.249993
vt 0.375011 0.357581
vt 0.659441 0.641119
vt 0.658166 0.386149
vt 0.528935 0.879982
vt 0.375011 0.950808
vt 0.266948 0.000006
vt 0.530039 0.369405
vt 0.508223 0.360705
vt 0.506912 0.889331
vt 0.525004 0.335225
vt 0.523866 0.914390
vt 0.472842 0.341987
vt 0.471356 0.908989
vt 0.554773 0.500000
vt 0.555868 0.250000
s 1
usemtl lambert1.003
f 1/1/1 2/2/1 4/4/1 3/3/1
f 3/3/2 4/4/2 6/7/2 5/5/2
f 5/5/3 6/7/3 8/11/3 7/9/3
f 2/2/4 8/12/4 6/8/4 4/4/4
f 7/10/5 1/1/5 3/3/5 5/6/5
f 10/15/1 9/14/1 31/42/1 32/43/1
f 29/40/2 19/29/2 10/15/2 32/43/2
f 11/17/3 15/24/3 16/25/3 13/20/3
f 13/20/6 16/25/6 22/32/6 26/37/6
f 15/24/2 24/35/2 21/31/2 12/18/2
f 16/25/3 15/24/3 12/18/3 14/23/3
f 13/20/6 26/37/6 30/41/6 23/33/6
f 11/16/5 13/21/5 23/34/5 19/28/5
f 21/31/4 20/30/4 14/22/4 12/19/4
f 31/42/6 9/13/6 23/33/6 30/41/6
f 19/28/5 23/34/5 9/14/5 10/15/5
f 20/30/6 22/32/6 16/25/6 14/23/6
f 19/29/2 29/40/2 25/36/2 11/17/2
f 28/39/6 30/41/6 26/37/6 18/27/6
f 11/17/2 25/36/2 24/35/2 15/24/2
f 29/40/2 27/38/2 17/26/2 25/36/2
f 29/40/7 32/43/7 31/42/7 30/41/7
f 30/41/8 28/39/8 27/38/8 29/40/8
f 28/39/9 18/27/9 17/26/9 27/38/9
f 18/27/10 26/37/10 25/36/10 17/26/10
f 26/37/11 22/32/11 24/35/11 25/36/11
f 22/32/12 20/30/12 21/31/12 24/35/12
