# This file uses centimeters as units for non-parametric coordinates.

mtllib Body.mtl
g default
v -0.491719 1.857937 -1.430761
v 0.491719 1.857937 -1.430761
v -0.703929 3.160188 -1.430761
v 0.703929 3.160188 -1.430761
v -1.200585 3.380428 -2.796561
v 1.200585 3.380428 -2.796561
v -0.867666 1.632869 -2.796561
v 0.867666 1.632869 -2.796561
v -1.200585 3.646370 -4.506909
v 1.200585 3.646370 -4.506909
v 0.916905 1.159374 -4.506909
v -0.916905 1.159374 -4.506909
v -1.014019 3.479286 -5.373796
v 1.014019 3.479286 -5.373796
v 0.972445 1.507382 -5.373796
v -0.972445 1.507382 -5.373796
v -0.890190 2.496037 -1.430761
v -1.518262 2.247684 -2.796561
v -1.518262 2.377995 -4.506909
v -1.282331 2.473609 -5.373796
v 1.282331 2.473609 -5.373796
v 1.518262 2.377995 -4.506909
v 1.518262 2.247684 -2.796561
v 0.890190 2.496037 -1.430761
v -0.164995 2.290580 -0.575379
v 0.164995 2.290580 -0.575379
v 0.298701 2.504692 -0.575379
v -0.298701 2.504692 -0.575379
v 0.236202 2.727546 -0.575379
v -0.236202 2.727546 -0.575379
vt 0.375000 0.000000
vt 0.625000 0.000000
vt 0.375000 0.250000
vt 0.625000 0.250000
vt 0.375000 0.500000
vt 0.625000 0.500000
vt 0.375000 0.750000
vt 0.625000 0.750000
vt 0.375000 1.000000
vt 0.625000 1.000000
vt 0.875000 0.000000
vt 0.875000 0.250000
vt 0.125000 0.000000
vt 0.125000 0.250000
vt 0.375000 0.500000
vt 0.625000 0.500000
vt 0.625000 0.750000
vt 0.375000 0.750000
vt 0.375000 0.500000
vt 0.625000 0.500000
vt 0.625000 0.750000
vt 0.375000 0.750000
vt 0.375000 0.122499
vt 0.125000 0.122499
vt 0.375000 0.627501
vt 0.375000 0.627501
vt 0.375000 0.627501
vt 0.625000 0.627501
vt 0.625000 0.627501
vt 0.625000 0.627501
vt 0.875000 0.122499
vt 0.625000 0.122499
vt 0.375000 0.000000
vt 0.625000 0.000000
vt 0.625000 0.122499
vt 0.375000 0.122499
vt 0.625000 0.250000
vt 0.375000 0.250000
vn 0.000000 0.000000 1.000000
vn 0.000000 0.000000 1.000000
vn 0.000000 0.000000 1.000000
vn 0.000000 0.000000 1.000000
vn 0.000000 0.978346 0.206976
vn 0.000000 0.978346 0.206976
vn 0.000000 0.987247 0.159197
vn 0.000000 0.987247 0.159197
vn 0.000000 0.000000 -1.000000
vn 0.000000 0.000000 -1.000000
vn 0.000000 0.000000 -1.000000
vn 0.000000 0.000000 -1.000000
vn 0.000000 -0.986693 0.162596
vn 0.000000 -0.986693 0.162596
vn 0.000000 -0.976480 0.215607
vn 0.000000 -0.976480 0.215607
vn 0.720110 -0.566062 0.401267
vn 0.713575 -0.597477 0.365830
vn 0.892350 -0.196471 0.406337
vn 0.888385 -0.116913 0.443963
vn -0.713575 -0.597477 0.365830
vn -0.720110 -0.566062 0.401267
vn -0.888385 -0.116913 0.443963
vn -0.892350 -0.196471 0.406337
vn 0.000000 0.988126 0.153644
vn 0.000000 0.988126 0.153644
vn 0.000000 0.998391 0.056712
vn 0.000000 0.998391 0.056712
vn 0.993159 -0.108977 -0.041954
vn 0.983624 -0.171957 0.053986
vn 0.823904 -0.562599 0.068303
vn 0.860379 -0.509436 -0.014937
vn 0.000000 -0.963750 0.266806
vn 0.000000 -0.963750 0.266806
vn 0.000000 -0.999537 0.030416
vn 0.000000 -0.999537 0.030416
vn -0.823904 -0.562599 0.068303
vn -0.983624 -0.171957 0.053986
vn -0.993159 -0.108977 -0.041954
vn -0.860379 -0.509436 -0.014937
vn 0.000000 0.981928 -0.189257
vn 0.000000 0.981928 -0.189257
vn 0.972636 -0.042345 -0.228442
vn 0.905962 -0.377853 -0.190943
vn 0.000000 -0.928013 -0.372547
vn 0.000000 -0.928013 -0.372547
vn -0.972636 -0.042345 -0.228442
vn -0.905962 -0.377853 -0.190943
vn -0.881247 0.247145 0.402893
vn -0.895927 0.251262 0.366309
vn -0.966304 0.255692 0.029619
vn -0.965527 0.253311 -0.059935
vn -0.940274 0.242295 -0.239120
vn 0.000000 0.000000 -1.000000
vn 0.000000 0.000000 -1.000000
vn 0.965527 0.253311 -0.059935
vn 0.940274 0.242295 -0.239120
vn 0.966304 0.255692 0.029619
vn 0.895927 0.251262 0.366309
vn 0.881247 0.247145 0.402893
vn 0.000000 0.000000 1.000000
vn 0.000000 0.000000 1.000000
vn 0.000000 -0.892352 0.451341
vn 0.000000 -0.892352 0.451341
vn 0.729928 -0.455814 0.509350
vn 0.729928 -0.455815 0.509351
vn -0.729928 -0.455815 0.509351
vn -0.729928 -0.455814 0.509350
vn 0.802471 0.225052 0.552623
vn 0.802471 0.225052 0.552623
vn 0.000000 0.892352 0.451340
vn 0.000000 0.892352 0.451340
vn -0.802471 0.225052 0.552623
vn -0.802471 0.225052 0.552623
s 1
g Main_Body Eagle
usemtl initialShadingGroup
f 25/33/1 26/34/2 27/35/3 28/36/4
s 2
f 3/3/5 4/4/6 6/6/7 5/5/8
s 3
f 20/27/9 21/28/10 15/21/11 16/22/12
s 4
f 7/7/13 8/8/14 2/10/15 1/9/16
s 5
f 2/2/17 8/11/18 23/31/19 24/32/20
s 6
f 7/13/21 1/1/22 17/23/23 18/24/24
s 7
f 5/5/25 6/6/26 10/16/27 9/15/28
s 8
f 22/29/29 23/30/30 8/8/31 11/17/32
s 9
f 8/8/33 7/7/34 12/18/35 11/17/36
s 10
f 7/7/37 18/25/38 19/26/39 12/18/40
s 7
f 9/15/28 10/16/27 14/20/41 13/19/42
s 8
f 21/28/43 22/29/29 11/17/32 15/21/44
s 9
f 11/17/36 12/18/35 16/22/45 15/21/46
s 10
f 12/18/40 19/26/39 20/27/47 16/22/48
s 6
f 18/24/24 17/23/23 3/3/49 5/14/50
s 10
f 19/26/39 18/25/38 5/5/51 9/15/52
f 20/27/47 19/26/39 9/15/52 13/19/53
s 3
f 13/19/54 14/20/55 21/28/10 20/27/9
s 8
f 10/16/56 22/29/29 21/28/43 14/20/57
f 6/6/58 23/30/30 22/29/29 10/16/56
s 5
f 24/32/20 23/31/19 6/12/59 4/4/60
s 1
f 28/36/4 27/35/3 29/37/61 30/38/62
s 4
f 1/1/16 2/2/15 26/34/63 25/33/64
s 5
f 2/2/17 24/32/20 27/35/65 26/34/66
s 6
f 17/23/23 1/1/22 25/33/67 28/36/68
s 5
f 24/32/20 4/4/60 29/37/69 27/35/70
s 2
f 4/4/6 3/3/5 30/38/71 29/37/72
s 6
f 3/3/49 17/23/23 28/36/73 30/38/74
