# This file uses centimeters as units for non-parametric coordinates.

mtllib Head.mtl
g default
v -0.904602 1.675041 -5.166557
v 0.904602 1.675041 -5.166557
v -0.904602 3.370400 -5.166557
v 0.904602 3.370400 -5.166557
v -0.503362 3.357930 -6.975761
v 0.503362 3.357930 -6.975761
v -0.770958 2.043910 -6.975761
v 0.770958 2.043910 -6.975761
v -0.488787 2.708637 -6.858910
v 0.488787 2.708637 -6.858910
v -0.362507 3.243326 -6.858910
v 0.362507 3.243326 -6.858910
v -0.077513 3.111411 -7.801209
v 0.077513 3.111411 -7.801209
v -0.104514 2.747009 -7.801209
v 0.104514 2.747009 -7.801209
v -0.584035 1.976852 -6.230503
v 0.584035 1.976852 -6.230503
v -0.433147 2.923269 -6.230503
v 0.433147 2.923269 -6.230503
v -0.433147 2.923269 -8.039706
v 0.433147 2.923269 -8.039706
v -0.584035 2.278266 -8.039706
v 0.584035 2.278266 -8.039706
v -0.488787 2.330292 -7.722179
v 0.488787 2.330292 -7.722179
v -0.362507 2.864982 -7.722179
v 0.362507 2.864982 -7.722179
v -0.077513 2.733066 -8.664477
v 0.077513 2.733066 -8.664477
v -0.104514 2.368665 -8.664477
v 0.104514 2.368665 -8.664477
v -0.077513 2.383197 -8.999733
v 0.077513 2.383197 -8.999733
v 0.104514 2.260200 -8.999733
v -0.104514 2.260200 -8.999733
vt 0.375000 0.000000
vt 0.625000 0.000000
vt 0.375000 0.250000
vt 0.625000 0.250000
vt 0.375000 0.500000
vt 0.625000 0.500000
vt 0.375000 0.750000
vt 0.625000 0.750000
vt 0.375000 1.000000
vt 0.625000 1.000000
vt 0.875000 0.000000
vt 0.875000 0.250000
vt 0.125000 0.000000
vt 0.125000 0.250000
vt 0.375000 0.000000
vt 0.625000 0.000000
vt 0.625000 0.250000
vt 0.375000 0.250000
vt 0.625000 0.500000
vt 0.375000 0.500000
vt 0.625000 0.750000
vt 0.375000 0.750000
vt 0.625000 1.000000
vt 0.375000 1.000000
vt 0.875000 0.000000
vt 0.875000 0.250000
vt 0.125000 0.000000
vt 0.125000 0.250000
vt 0.375000 0.000000
vt 0.625000 0.000000
vt 0.625000 0.250000
vt 0.375000 0.250000
vt 0.625000 0.500000
vt 0.375000 0.500000
vt 0.625000 0.750000
vt 0.375000 0.750000
vt 0.625000 1.000000
vt 0.375000 1.000000
vt 0.875000 0.000000
vt 0.875000 0.250000
vt 0.125000 0.000000
vt 0.125000 0.250000
vt 0.375000 0.000000
vt 0.625000 0.000000
vt 0.625000 0.250000
vt 0.375000 0.250000
vt 0.625000 0.500000
vt 0.375000 0.500000
vt 0.375000 0.500000
vt 0.625000 0.500000
vt 0.625000 0.750000
vt 0.375000 0.750000
vt 0.375000 0.750000
vt 0.625000 0.750000
vt 0.625000 1.000000
vt 0.375000 1.000000
vt 0.875000 0.000000
vt 0.875000 0.250000
vt 0.125000 0.000000
vt 0.125000 0.250000
vn 0.000000 0.000000 1.000000
vn 0.000000 0.000000 1.000000
vn 0.000000 0.000000 1.000000
vn 0.000000 0.000000 1.000000
vn 0.000000 0.999976 -0.006892
vn 0.000000 0.999976 -0.006892
vn 0.000000 0.999976 -0.006892
vn 0.000000 0.999976 -0.006892
vn 0.000000 0.000000 -1.000000
vn 0.000000 0.000000 -1.000000
vn 0.000000 0.000000 -1.000000
vn 0.000000 0.000000 -1.000000
vn 0.000000 -0.979842 -0.199775
vn 0.000000 -0.979842 -0.199775
vn 0.000000 -0.979842 -0.199775
vn 0.000000 -0.979842 -0.199775
vn 0.986649 0.087734 -0.137208
vn 0.986649 0.087734 -0.137208
vn 0.986649 0.087734 -0.137208
vn 0.986649 0.087734 -0.137208
vn -0.986649 0.087734 -0.137208
vn -0.986649 0.087734 -0.137208
vn -0.986649 0.087734 -0.137208
vn -0.986649 0.087734 -0.137208
vn 0.000000 0.000000 1.000000
vn 0.000000 0.000000 1.000000
vn 0.000000 0.000000 1.000000
vn 0.000000 0.000000 1.000000
vn 0.000000 0.990343 -0.138641
vn 0.000000 0.990343 -0.138641
vn 0.000000 0.990343 -0.138641
vn 0.000000 0.990343 -0.138641
vn 0.000000 0.000000 -1.000000
vn 0.000000 0.000000 -1.000000
vn 0.000000 0.000000 -1.000000
vn 0.000000 0.000000 -1.000000
vn 0.000000 -0.999172 -0.040688
vn 0.000000 -0.999172 -0.040688
vn 0.000000 -0.999172 -0.040688
vn 0.000000 -0.999172 -0.040688
vn 0.927973 0.158206 -0.337398
vn 0.927973 0.158206 -0.337398
vn 0.927973 0.158206 -0.337398
vn 0.927973 0.158206 -0.337398
vn -0.927973 0.158206 -0.337398
vn -0.927973 0.158206 -0.337398
vn -0.927973 0.158206 -0.337398
vn -0.927973 0.158206 -0.337398
vn 0.000000 0.000000 1.000000
vn 0.000000 0.000000 1.000000
vn 0.000000 0.000000 1.000000
vn 0.000000 0.000000 1.000000
vn 0.000000 1.000000 0.000000
vn 0.000000 1.000000 0.000000
vn 0.000000 1.000000 0.000000
vn 0.000000 1.000000 0.000000
vn 0.000000 0.000000 -1.000000
vn 0.000000 0.000000 -1.000000
vn 0.000000 0.000000 -1.000000
vn 0.000000 0.000000 -1.000000
vn 0.000000 -0.986405 -0.164336
vn 0.000000 -0.986405 -0.164336
vn 0.000000 -0.986405 -0.164336
vn 0.000000 -0.986405 -0.164336
vn 0.982373 0.186285 0.015518
vn 0.982373 0.186285 0.015518
vn 0.982373 0.186285 0.015518
vn 0.982373 0.186285 0.015518
vn -0.982373 0.186285 0.015518
vn -0.982373 0.186285 0.015518
vn -0.982373 0.186285 0.015518
vn -0.982373 0.186285 0.015518
vn 0.000000 0.000000 1.000000
vn 0.000000 0.000000 1.000000
vn 0.000000 0.000000 1.000000
vn 0.000000 0.000000 1.000000
vn 0.000000 0.990343 -0.138641
vn 0.000000 0.990343 -0.138641
vn 0.000000 0.975314 -0.220825
vn 0.000000 0.975314 -0.220825
vn 0.000000 0.000000 -1.000000
vn 0.000000 0.000000 -1.000000
vn 0.000000 0.000000 -1.000000
vn 0.000000 0.000000 -1.000000
vn 0.000000 -0.999972 -0.007435
vn 0.000000 -0.999972 -0.007435
vn 0.000000 -0.999172 -0.040688
vn 0.000000 -0.999172 -0.040688
vn 0.927973 0.158206 -0.337399
vn 0.943901 0.150689 -0.293843
vn 0.935248 0.154935 -0.318286
vn 0.927972 0.158206 -0.337399
vn -0.943901 0.150689 -0.293843
vn -0.927973 0.158206 -0.337399
vn -0.927972 0.158206 -0.337399
vn -0.935248 0.154935 -0.318286
vn 0.000000 0.691866 -0.722026
vn 0.000000 0.691866 -0.722026
vn 0.991114 0.109814 -0.075065
vn 0.991114 0.109814 -0.075065
vn 0.000000 -0.951444 0.307821
vn 0.000000 -0.951444 0.307821
vn -0.991114 0.109814 -0.075065
vn -0.991114 0.109814 -0.075065
s off
g Head Eagle
usemtl initialShadingGroup
f 1/1/1 2/2/2 4/4/3 3/3/4
f 3/3/5 4/4/6 6/6/7 5/5/8
f 5/5/9 6/6/10 8/8/11 7/7/12
f 7/7/13 8/8/14 2/10/15 1/9/16
f 2/2/17 8/11/18 6/12/19 4/4/20
f 7/13/21 1/1/22 3/3/23 5/14/24
f 9/15/25 10/16/26 12/17/27 11/18/28
f 11/18/29 12/17/30 14/19/31 13/20/32
f 13/20/33 14/19/34 16/21/35 15/22/36
f 15/22/37 16/21/38 10/23/39 9/24/40
f 10/16/41 16/25/42 14/26/43 12/17/44
f 15/27/45 9/15/46 11/18/47 13/28/48
f 17/29/49 18/30/50 20/31/51 19/32/52
f 19/32/53 20/31/54 22/33/55 21/34/56
f 21/34/57 22/33/58 24/35/59 23/36/60
f 23/36/61 24/35/62 18/37/63 17/38/64
f 18/30/65 24/39/66 22/40/67 20/31/68
f 23/41/69 17/29/70 19/32/71 21/42/72
f 25/43/73 26/44/74 28/45/75 27/46/76
s 1
f 27/46/77 28/45/78 30/47/79 29/48/80
s off
f 33/49/81 34/50/82 35/51/83 36/52/84
s 2
f 31/53/85 32/54/86 26/55/87 25/56/88
s 3
f 26/44/89 32/57/90 30/58/91 28/45/92
s 4
f 31/59/93 25/43/94 27/46/95 29/60/96
s 1
f 29/48/80 30/47/79 34/50/97 33/49/98
s 3
f 30/47/91 32/54/90 35/51/99 34/50/100
s 2
f 32/54/86 31/53/85 36/52/101 35/51/102
s 4
f 31/53/93 29/48/96 33/49/103 36/52/104
