# Blender 3.5.0
# www.blender.org
mtllib left_wing.mtl
o Wing_Left
v -0.018246 0.030315 -0.027976
v -0.008455 0.025629 -0.027976
v -0.017453 0.036355 -0.027976
v -0.007413 0.033569 -0.027976
v -0.017453 0.036355 -0.050300
v -0.007413 0.033569 -0.050300
v -0.018246 0.030315 -0.050300
v -0.008455 0.025629 -0.050300
v -0.038312 0.037840 -0.053546
v -0.038312 0.037840 -0.029762
v -0.037520 0.040807 -0.029762
v -0.037520 0.040807 -0.053546
v -0.063968 0.041041 -0.033988
v -0.063968 0.041041 -0.015237
v -0.063492 0.042986 -0.015237
v -0.063492 0.042986 -0.033988
vn -0.0407 0.0072 0.9991
vn -0.0000 -0.0000 1.0000
vn -0.0509 0.0090 0.9987
vn 0.2341 0.9722 -0.0000
vn 0.2674 0.9636 -0.0000
vn 0.2324 0.9726 -0.0000
vn 0.0922 -0.0162 -0.9956
vn -0.0000 -0.0000 -1.0000
vn 0.0739 -0.0130 -0.9972
vn -0.3764 -0.9265 -0.0000
vn -0.4318 -0.9020 -0.0000
vn -0.3790 -0.9254 -0.0000
vn 0.9915 -0.1301 -0.0000
vn -0.9714 0.2374 -0.0000
vn -0.2199 -0.9755 -0.0000
vn -0.2575 -0.9663 -0.0000
vn -0.0843 0.0148 0.9963
vn 0.1592 0.9872 -0.0000
vn 0.1378 0.9905 -0.0000
vn -0.2053 0.0603 -0.9768
vn -0.1796 0.0541 -0.9822
vn -0.1238 -0.9923 -0.0000
vn 0.4769 -0.1231 0.8703
vn 0.0836 0.9965 -0.0000
vn -0.5868 0.1515 -0.7954
vt 0.375000 1.000000
vt 0.375000 0.000000
vt 0.625000 1.000000
vt 0.625000 0.000000
vt 0.375000 0.250000
vt 0.625000 0.250000
vt 0.375000 0.500000
vt 0.125000 0.250000
vt 0.625000 0.500000
vt 0.875000 0.250000
vt 0.375000 0.750000
vt 0.125000 0.000000
vt 0.625000 0.750000
vt 0.875000 0.000000
vt 0.125000 0.000000
vt 0.375000 0.000000
vt 0.375000 0.250000
vt 0.125000 0.250000
vt 0.125000 0.000000
vt 0.375000 0.000000
vt 0.375000 0.250000
vt 0.125000 0.250000
s 1
usemtl lambert1.010
f 1/2/1 2/4/2 4/6/2 3/5/3
f 3/5/4 4/6/5 6/9/5 5/7/6
f 5/7/7 6/9/8 8/13/8 7/11/9
f 7/11/10 8/13/11 2/3/11 1/1/12
f 2/4/13 8/14/13 6/10/13 4/6/13
f 13/19/14 14/20/14 15/21/14 16/22/14
f 7/12/10 1/2/12 10/16/15 9/15/16
f 1/2/1 3/5/3 11/17/17 10/16/17
f 3/5/4 5/8/6 12/18/18 11/17/19
f 5/8/7 7/12/9 9/15/20 12/18/21
f 9/15/16 10/16/15 14/20/22 13/19/22
f 10/16/23 11/17/23 15/21/23 14/20/23
f 11/17/19 12/18/18 16/22/24 15/21/24
f 12/18/21 9/15/20 13/19/25 16/22/25
