# Blender 3.5.0
# www.blender.org
mtllib left_leg.mtl
o Leg_Left
v -0.009814 0.011204 -0.028592
v -0.019476 0.013781 -0.028592
v -0.007237 0.020866 -0.028592
v -0.015484 0.023443 -0.028592
v -0.007237 0.020866 -0.038592
v -0.014645 0.023443 -0.038592
v -0.004997 0.014507 -0.038592
v -0.014659 0.017084 -0.038592
v -0.011203 0.013604 -0.021607
v -0.017077 0.015170 -0.021607
v -0.015510 0.021044 -0.021607
v -0.009636 0.019477 -0.021607
v -0.012060 0.015084 -0.017117
v -0.015597 0.016027 -0.017117
v -0.014653 0.019564 -0.017117
v -0.011116 0.018621 -0.017117
v -0.012060 0.015084 -0.014379
v -0.015597 0.016027 -0.014379
v -0.014653 0.019564 -0.014379
v -0.011116 0.018621 -0.014379
v -0.012060 0.015084 -0.010547
v -0.015597 0.016027 -0.010547
v -0.014653 0.019564 -0.010547
v -0.011116 0.018621 -0.010547
v -0.012060 0.015084 -0.006466
v -0.015597 0.016027 -0.006466
v -0.014653 0.019564 -0.006466
v -0.011116 0.018621 -0.006466
v -0.012060 0.015084 -0.010547
v -0.015597 0.016027 -0.010547
v -0.015597 0.016027 -0.006466
v -0.012060 0.015084 -0.006466
v -0.012123 0.017393 -0.007097
v -0.014152 0.017393 -0.007097
v -0.012077 0.021143 -0.007097
v -0.014106 0.021143 -0.007097
v -0.012077 0.021143 -0.008932
v -0.014106 0.021143 -0.008932
v -0.012123 0.017393 -0.008932
v -0.014152 0.017393 -0.008932
v -0.010551 0.010879 -0.007097
v -0.012581 0.010879 -0.007097
v -0.011590 0.017487 -0.007097
v -0.013619 0.017487 -0.007097
v -0.011590 0.017487 -0.008932
v -0.013619 0.017487 -0.008932
v -0.010551 0.010879 -0.008932
v -0.012581 0.010879 -0.008932
v -0.016148 0.010879 -0.007097
v -0.014119 0.010879 -0.007097
v -0.015109 0.017487 -0.007097
v -0.013080 0.017487 -0.007097
v -0.015109 0.017487 -0.008932
v -0.013080 0.017487 -0.008932
v -0.016148 0.010879 -0.008932
v -0.014119 0.010879 -0.008932
vn -0.0000 -0.0000 1.0000
vn 0.5023 0.8433 0.1910
vn 0.5017 0.8390 0.2104
vn 0.3912 0.9202 0.0164
vn 0.3752 0.9268 0.0157
vn -0.0000 -0.0000 -1.0000
vn -0.2691 -0.8446 -0.4628
vn -0.3512 -0.7153 -0.6041
vn -0.4330 -0.8529 -0.2916
vn -0.4973 -0.7312 -0.4669
vn -0.9008 0.4275 -0.0759
vn -0.8878 0.3310 -0.3196
vn -0.9162 0.2883 -0.2784
vn -0.8601 0.4873 -0.1512
vn 0.9511 -0.0273 0.3078
vn 0.9022 -0.1885 0.3880
vn 0.8767 -0.1890 0.4424
vn 0.9579 -0.0253 0.2861
vn -0.3038 -0.8945 0.3280
vn -0.8866 0.3913 0.2468
vn -0.8911 0.3835 0.2427
vn 0.3036 0.8939 0.3298
vn 0.2842 0.9078 0.3085
vn 0.8945 -0.3038 0.3280
vn -0.2530 -0.9487 0.1896
vn -0.9487 0.2530 0.1896
vn 0.2530 0.9487 0.1896
vn 0.9487 -0.2530 0.1896
vn -0.2577 -0.9662 -0.0000
vn -0.9662 0.2577 -0.0000
vn 0.2577 0.9662 -0.0000
vn 0.9662 -0.2577 -0.0000
vn -0.0000 -0.0000 -0.0000
vn -0.0000 1.0000 -0.0000
vn -0.0000 -1.0000 -0.0000
vn -0.9999 0.0123 -0.0000
vn 0.9999 -0.0123 -0.0000
vn -0.9879 -0.1553 -0.0000
vn 0.9879 0.1553 -0.0000
vn 0.9879 -0.1553 -0.0000
vn -0.9879 0.1553 -0.0000
vt 0.375000 1.000000
vt 0.375000 0.000000
vt 0.625000 1.000000
vt 0.625000 0.000000
vt 0.375000 0.250000
vt 0.625000 0.250000
vt 0.375000 0.500000
vt 0.125000 0.250000
vt 0.625000 0.500000
vt 0.875000 0.250000
vt 0.375000 0.750000
vt 0.125000 0.000000
vt 0.625000 0.750000
vt 0.875000 0.000000
vt 0.375000 0.000000
vt 0.625000 0.000000
vt 0.625000 0.250000
vt 0.375000 0.250000
vt 0.375000 0.000000
vt 0.625000 0.000000
vt 0.625000 0.250000
vt 0.375000 0.250000
vt 0.375000 0.000000
vt 0.625000 0.000000
vt 0.625000 0.250000
vt 0.375000 0.250000
vt 0.375000 0.000000
vt 0.625000 0.000000
vt 0.625000 0.250000
vt 0.375000 0.250000
vt 0.375000 0.000000
vt 0.625000 0.000000
vt 0.625000 0.250000
vt 0.375000 0.250000
vt 0.375000 0.000000
vt 0.625000 0.000000
vt 0.625000 0.000000
vt 0.375000 0.000000
vt 0.375000 1.000000
vt 0.375000 0.000000
vt 0.625000 1.000000
vt 0.625000 0.000000
vt 0.375000 0.250000
vt 0.625000 0.250000
vt 0.375000 0.500000
vt 0.125000 0.250000
vt 0.625000 0.500000
vt 0.875000 0.250000
vt 0.375000 0.750000
vt 0.125000 0.000000
vt 0.625000 0.750000
vt 0.875000 0.000000
vt 0.375000 1.000000
vt 0.375000 0.000000
vt 0.625000 1.000000
vt 0.625000 0.000000
vt 0.375000 0.250000
vt 0.625000 0.250000
vt 0.375000 0.500000
vt 0.125000 0.250000
vt 0.625000 0.500000
vt 0.875000 0.250000
vt 0.375000 0.750000
vt 0.125000 0.000000
vt 0.625000 0.750000
vt 0.875000 0.000000
vt 0.375000 1.000000
vt 0.375000 0.000000
vt 0.625000 1.000000
vt 0.625000 0.000000
vt 0.375000 0.250000
vt 0.625000 0.250000
vt 0.375000 0.500000
vt 0.125000 0.250000
vt 0.625000 0.500000
vt 0.875000 0.250000
vt 0.375000 0.750000
vt 0.125000 0.000000
vt 0.625000 0.750000
vt 0.875000 0.000000
s 1
usemtl lambert1.007
f 25/31/1 28/34/1 27/33/1 26/32/1
f 3/5/2 5/7/5 6/9/4 4/6/3
f 5/7/6 7/11/6 8/13/6 6/9/6
f 7/11/7 1/1/10 2/3/9 8/13/8
f 2/4/11 4/6/14 6/10/13 8/14/12
f 7/12/15 5/8/18 3/5/17 1/2/16
f 1/2/10 9/15/19 10/16/19 2/4/9
f 2/4/11 10/16/21 11/17/20 4/6/14
f 4/6/3 11/17/23 12/18/22 3/5/2
f 3/5/17 12/18/24 9/15/24 1/2/16
f 9/15/19 13/19/25 14/20/25 10/16/19
f 10/16/21 14/20/26 15/21/26 11/17/20
f 11/17/23 15/21/27 16/22/27 12/18/22
f 12/18/24 16/22/28 13/19/28 9/15/24
f 13/19/25 17/23/29 18/24/29 14/20/25
f 14/20/26 18/24/30 19/25/30 15/21/26
f 15/21/27 19/25/31 20/26/31 16/22/27
f 16/22/28 20/26/32 17/23/32 13/19/28
f 17/23/29 21/27/29 22/28/29 18/24/29
f 18/24/30 22/28/30 23/29/30 19/25/30
f 19/25/31 23/29/31 24/30/31 20/26/31
f 20/26/32 24/30/32 21/27/32 17/23/32
f 29/35/29 32/38/29 31/37/29 30/36/29
f 22/28/30 26/32/30 27/33/30 23/29/30
f 23/29/31 27/33/31 28/34/31 24/30/31
f 24/30/32 28/34/32 25/31/32 21/27/32
f 21/27/33 29/35/33 30/36/33 22/28/33
f 22/28/33 30/36/33 31/37/33 26/32/33
f 26/32/33 31/37/33 32/38/33 25/31/33
f 25/31/33 32/38/33 29/35/33 21/27/33
f 33/40/1 35/43/1 36/44/1 34/42/1
f 35/43/34 37/45/34 38/47/34 36/44/34
f 37/45/6 39/49/6 40/51/6 38/47/6
f 39/49/35 33/39/35 34/41/35 40/51/35
f 34/42/36 36/44/36 38/48/36 40/52/36
f 39/50/37 37/46/37 35/43/37 33/40/37
f 41/54/1 43/57/1 44/58/1 42/56/1
f 43/57/34 45/59/34 46/61/34 44/58/34
f 45/59/6 47/63/6 48/65/6 46/61/6
f 47/63/35 41/53/35 42/55/35 48/65/35
f 42/56/38 44/58/38 46/62/38 48/66/38
f 47/64/39 45/60/39 43/57/39 41/54/39
f 49/68/1 50/70/1 52/72/1 51/71/1
f 51/71/34 52/72/34 54/75/34 53/73/34
f 53/73/6 54/75/6 56/79/6 55/77/6
f 55/77/35 56/79/35 50/69/35 49/67/35
f 50/70/40 56/80/40 54/76/40 52/72/40
f 55/78/41 49/68/41 51/71/41 53/74/41
