# Blender 3.5.0
# www.blender.org
mtllib right_leg.mtl
o Leg_Right
v 0.012850 0.011204 -0.028592
v 0.022512 0.013781 -0.028592
v 0.010273 0.020866 -0.028592
v 0.015811 0.023443 -0.028592
v 0.010273 0.020866 -0.038592
v 0.014499 0.023443 -0.038592
v 0.008033 0.014507 -0.038592
v 0.017695 0.017084 -0.038592
v 0.014239 0.013604 -0.021607
v 0.020113 0.015170 -0.021607
v 0.018546 0.021044 -0.021607
v 0.012672 0.019477 -0.021607
v 0.015096 0.015084 -0.017117
v 0.018633 0.016027 -0.017117
v 0.017689 0.019564 -0.017117
v 0.014152 0.018621 -0.017117
v 0.015096 0.015084 -0.014379
v 0.018633 0.016027 -0.014379
v 0.017689 0.019564 -0.014379
v 0.014152 0.018621 -0.014379
v 0.015096 0.015084 -0.010547
v 0.018633 0.016027 -0.010547
v 0.017689 0.019564 -0.010547
v 0.014152 0.018621 -0.010547
v 0.015096 0.015084 -0.006466
v 0.018633 0.016027 -0.006466
v 0.017689 0.019564 -0.006466
v 0.014152 0.018621 -0.006466
v 0.015096 0.015084 -0.010547
v 0.018633 0.016027 -0.010547
v 0.018633 0.016027 -0.006466
v 0.015096 0.015084 -0.006466
v 0.015159 0.017393 -0.007097
v 0.017188 0.017393 -0.007097
v 0.015113 0.021143 -0.007097
v 0.017142 0.021143 -0.007097
v 0.015113 0.021143 -0.008932
v 0.017142 0.021143 -0.008932
v 0.015159 0.017393 -0.008932
v 0.017188 0.017393 -0.008932
v 0.013587 0.010879 -0.007097
v 0.015617 0.010879 -0.007097
v 0.014626 0.017487 -0.007097
v 0.016655 0.017487 -0.007097
v 0.014626 0.017487 -0.008932
v 0.016655 0.017487 -0.008932
v 0.013587 0.010879 -0.008932
v 0.015617 0.010879 -0.008932
v 0.019184 0.010879 -0.007097
v 0.017155 0.010879 -0.007097
v 0.018145 0.017487 -0.007097
v 0.016116 0.017487 -0.007097
v 0.018145 0.017487 -0.008932
v 0.016116 0.017487 -0.008932
v 0.019184 0.010879 -0.008932
v 0.017155 0.010879 -0.008932
vn -0.0000 -0.0000 1.0000
vn -0.5043 0.8387 0.2059
vn -0.5151 0.8191 0.2524
vn -0.4666 0.8839 0.0306
vn -0.0000 -0.0000 -1.0000
vn 0.2691 -0.8446 -0.4628
vn 0.3512 -0.7153 -0.6041
vn 0.4330 -0.8529 -0.2916
vn 0.4973 -0.7312 -0.4669
vn 0.7413 0.6596 -0.1240
vn 0.6884 0.6884 -0.2286
vn 0.7853 0.5878 -0.1945
vn 0.6954 0.6954 -0.1813
vn -0.9511 -0.0273 0.3078
vn -0.9022 -0.1885 0.3880
vn -0.8767 -0.1890 0.4424
vn -0.9579 -0.0253 0.2861
vn 0.3038 -0.8945 0.3280
vn 0.8391 0.5383 0.0780
vn 0.8534 0.5154 0.0784
vn -0.3032 0.8927 0.3333
vn -0.2961 0.8984 0.3243
vn -0.8945 -0.3038 0.3280
vn 0.2530 -0.9487 0.1896
vn 0.9487 0.2530 0.1896
vn -0.2530 0.9487 0.1896
vn -0.9487 -0.2530 0.1896
vn 0.2577 -0.9662 -0.0000
vn 0.9662 0.2577 -0.0000
vn -0.2577 0.9662 -0.0000
vn -0.9662 -0.2577 -0.0000
vn -0.0000 -0.0000 -0.0000
vn -0.0000 1.0000 -0.0000
vn -0.0000 -1.0000 -0.0000
vn 0.9999 0.0123 -0.0000
vn -0.9999 -0.0123 -0.0000
vn 0.9879 -0.1553 -0.0000
vn -0.9879 0.1553 -0.0000
vn -0.9879 -0.1553 -0.0000
vn 0.9879 0.1553 -0.0000
vt 0.375000 1.000000
vt 0.375000 0.000000
vt 0.625000 1.000000
vt 0.625000 0.000000
vt 0.375000 0.250000
vt 0.625000 0.250000
vt 0.375000 0.500000
vt 0.125000 0.250000
vt 0.625000 0.500000
vt 0.875000 0.250000
vt 0.375000 0.750000
vt 0.125000 0.000000
vt 0.625000 0.750000
vt 0.875000 0.000000
vt 0.375000 0.000000
vt 0.625000 0.000000
vt 0.625000 0.250000
vt 0.375000 0.250000
vt 0.375000 0.000000
vt 0.625000 0.000000
vt 0.625000 0.250000
vt 0.375000 0.250000
vt 0.375000 0.000000
vt 0.625000 0.000000
vt 0.625000 0.250000
vt 0.375000 0.250000
vt 0.375000 0.000000
vt 0.625000 0.000000
vt 0.625000 0.250000
vt 0.375000 0.250000
vt 0.375000 0.000000
vt 0.625000 0.000000
vt 0.625000 0.250000
vt 0.375000 0.250000
vt 0.375000 0.000000
vt 0.625000 0.000000
vt 0.625000 0.000000
vt 0.375000 0.000000
vt 0.375000 1.000000
vt 0.375000 0.000000
vt 0.625000 1.000000
vt 0.625000 0.000000
vt 0.375000 0.250000
vt 0.625000 0.250000
vt 0.375000 0.500000
vt 0.125000 0.250000
vt 0.625000 0.500000
vt 0.875000 0.250000
vt 0.375000 0.750000
vt 0.125000 0.000000
vt 0.625000 0.750000
vt 0.875000 0.000000
vt 0.375000 1.000000
vt 0.375000 0.000000
vt 0.625000 1.000000
vt 0.625000 0.000000
vt 0.375000 0.250000
vt 0.625000 0.250000
vt 0.375000 0.500000
vt 0.125000 0.250000
vt 0.625000 0.500000
vt 0.875000 0.250000
vt 0.375000 0.750000
vt 0.125000 0.000000
vt 0.625000 0.750000
vt 0.875000 0.000000
vt 0.375000 1.000000
vt 0.375000 0.000000
vt 0.625000 1.000000
vt 0.625000 0.000000
vt 0.375000 0.250000
vt 0.625000 0.250000
vt 0.375000 0.500000
vt 0.125000 0.250000
vt 0.625000 0.500000
vt 0.875000 0.250000
vt 0.375000 0.750000
vt 0.125000 0.000000
vt 0.625000 0.750000
vt 0.875000 0.000000
s 1
usemtl lambert1.008
f 25/31/1 26/32/1 27/33/1 28/34/1
f 3/5/2 4/6/3 6/9/4 5/7/4
f 5/7/5 6/9/5 8/13/5 7/11/5
f 7/11/6 8/13/7 2/3/8 1/1/9
f 2/4/10 8/14/11 6/10/12 4/6/13
f 7/12/14 1/2/15 3/5/16 5/8/17
f 1/2/9 2/4/8 10/16/18 9/15/18
f 2/4/10 4/6/13 11/17/19 10/16/20
f 4/6/3 3/5/2 12/18/21 11/17/22
f 3/5/16 1/2/15 9/15/23 12/18/23
f 9/15/18 10/16/18 14/20/24 13/19/24
f 10/16/20 11/17/19 15/21/25 14/20/25
f 11/17/22 12/18/21 16/22/26 15/21/26
f 12/18/23 9/15/23 13/19/27 16/22/27
f 13/19/24 14/20/24 18/24/28 17/23/28
f 14/20/25 15/21/25 19/25/29 18/24/29
f 15/21/26 16/22/26 20/26/30 19/25/30
f 16/22/27 13/19/27 17/23/31 20/26/31
f 17/23/28 18/24/28 22/28/28 21/27/28
f 18/24/29 19/25/29 23/29/29 22/28/29
f 19/25/30 20/26/30 24/30/30 23/29/30
f 20/26/31 17/23/31 21/27/31 24/30/31
f 29/35/28 30/36/28 31/37/28 32/38/28
f 22/28/29 23/29/29 27/33/29 26/32/29
f 23/29/30 24/30/30 28/34/30 27/33/30
f 24/30/31 21/27/31 25/31/31 28/34/31
f 21/27/32 22/28/32 30/36/32 29/35/32
f 22/28/32 26/32/32 31/37/32 30/36/32
f 26/32/32 25/31/32 32/38/32 31/37/32
f 25/31/32 21/27/32 29/35/32 32/38/32
f 33/40/1 34/42/1 36/44/1 35/43/1
f 35/43/33 36/44/33 38/47/33 37/45/33
f 37/45/5 38/47/5 40/51/5 39/49/5
f 39/49/34 40/51/34 34/41/34 33/39/34
f 34/42/35 40/52/35 38/48/35 36/44/35
f 39/50/36 33/40/36 35/43/36 37/46/36
f 41/54/1 42/56/1 44/58/1 43/57/1
f 43/57/33 44/58/33 46/61/33 45/59/33
f 45/59/5 46/61/5 48/65/5 47/63/5
f 47/63/34 48/65/34 42/55/34 41/53/34
f 42/56/37 48/66/37 46/62/37 44/58/37
f 47/64/38 41/54/38 43/57/38 45/60/38
f 49/68/1 51/71/1 52/72/1 50/70/1
f 51/71/33 53/73/33 54/75/33 52/72/33
f 53/73/5 55/77/5 56/79/5 54/75/5
f 55/77/34 49/67/34 50/69/34 56/79/34
f 50/70/39 52/72/39 54/76/39 56/80/39
f 55/78/40 53/74/40 51/71/40 49/68/40
