# Blender 3.5.0
# www.blender.org
mtllib tail.mtl
o Tail
v -0.016924 0.022123 0.016974
v 0.016924 0.022123 0.016974
v -0.016924 0.024869 0.017326
v 0.016924 0.024869 0.017326
v -0.005336 0.028889 -0.014959
v 0.005336 0.028889 -0.014959
v -0.005336 0.026379 -0.015281
v 0.005336 0.026379 -0.015281
vn -0.0000 -0.1272 0.9919
vn -0.0000 0.9923 0.1236
vn -0.0000 0.1272 -0.9919
vn -0.0000 -0.9914 -0.1308
vn 0.9420 0.0427 -0.3328
vn -0.9420 0.0427 -0.3328
vt 0.375000 1.000000
vt 0.375000 0.000000
vt 0.625000 1.000000
vt 0.625000 0.000000
vt 0.375000 0.250000
vt 0.625000 0.250000
vt 0.375000 0.500000
vt 0.125000 0.250000
vt 0.625000 0.500000
vt 0.875000 0.250000
vt 0.375000 0.750000
vt 0.125000 0.000000
vt 0.625000 0.750000
vt 0.875000 0.000000
s 1
usemtl lambert1.009
f 1/2/1 2/4/1 4/6/1 3/5/1
f 3/5/2 4/6/2 6/9/2 5/7/2
f 5/7/3 6/9/3 8/13/3 7/11/3
f 7/11/4 8/13/4 2/3/4 1/1/4
f 2/4/5 8/14/5 6/10/5 4/6/5
f 7/12/6 1/2/6 3/5/6 5/8/6
