# Blender 3.3.0
# www.blender.org
mtllib Debris_Broken.mtl
o Debris_Broken
v -0.995497 0.456023 1.198017
v -0.679453 0.456023 1.198017
v -0.995497 0.647820 1.114982
v -0.679453 0.647820 1.114982
v -0.995497 -0.343832 -1.175574
v -0.679453 -0.343832 -1.175574
v -0.995497 -0.535630 -1.092539
v -0.679453 -0.535630 -1.092539
v -1.057431 0.479394 1.297905
v -1.057431 0.589596 1.250196
v -1.057431 -0.483288 -1.227993
v 1.643029 -0.483288 -1.227993
v -1.057431 -0.593489 -1.180282
v 1.643029 -0.593489 -1.180282
v 0.215858 -0.483288 -1.227993
v 0.221249 -0.593489 -1.180282
v 0.598874 0.210366 0.374237
v 0.586828 0.097867 0.416639
v -1.057431 0.126728 0.181048
v 1.643029 -0.196592 -0.263511
v 1.643029 -0.081911 -0.300875
v 0.605354 -0.180032 -0.225261
v -1.057431 0.015612 0.226645
v 0.617278 -0.067200 -0.266897
v 0.381657 0.113702 0.150957
v 0.368162 0.001115 0.193158
v 0.562883 0.223848 0.405378
v 0.550598 0.111995 0.449275
v -0.000573 0.190076 0.327371
v -0.016608 0.077998 0.370745
v 0.884453 0.479394 1.297905
v 0.896276 0.589596 1.250196
vn -0.0000 0.3973 0.9177
vn -0.0000 0.9177 -0.3973
vn -0.0000 -0.3973 -0.9177
vn 1.0000 -0.0000 -0.0000
vn -1.0000 -0.0000 -0.0000
vn -0.0000 -0.9177 0.3973
vn 0.7443 -0.3310 -0.5801
vn -0.1492 0.3754 0.9148
vn 0.6899 0.1935 0.6975
vn 0.7442 -0.3073 -0.5930
vn 0.8815 0.0740 0.4663
vn 0.0380 0.3260 0.9446
vt 0.257953 0.180731
vt 0.294013 0.216793
vt 0.257955 0.126200
vt 0.294017 0.090140
vt 0.294014 0.180732
vt 0.294016 0.126201
vt 0.724679 0.180747
vt 0.724681 0.126216
vt 0.760740 0.180748
vt 0.724677 0.216808
vt 0.760742 0.126217
vt 0.724682 0.090154
vt 0.031558 0.020340
vt 0.031558 0.750761
vt 0.015469 0.035683
vt 0.031558 0.035683
vt 0.031558 0.392493
vt 0.374347 0.392493
vt 0.031558 0.407754
vt 0.015469 0.392493
vt 0.389250 0.392493
vt 0.374347 0.407754
vt 0.193539 0.392493
vt 0.193539 0.407754
vt 0.240707 0.170709
vt 0.524759 0.035683
vt 0.241389 0.628454
vt 0.524759 0.020340
vt 0.031558 0.198629
vt 0.389250 0.264127
vt 0.374347 0.533731
vt 0.761428 0.020340
vt 0.374347 0.264127
vt 0.761428 0.035683
vt 0.243311 0.539658
vt 0.631130 0.020340
vt 0.031558 0.603183
vt 0.015469 0.198629
vt 0.243471 0.259377
vt 0.631130 0.035683
vt 0.213284 0.201726
vt 0.565975 0.035683
vt 0.213484 0.597677
vt 0.565975 0.020340
vt 0.236118 0.166424
vt 0.518401 0.035683
vt 0.236812 0.632991
vt 0.518401 0.020340
vt 0.164649 0.177559
vt 0.446098 0.035683
vt 0.164763 0.622477
vt 0.446098 0.020340
vt 0.279755 0.750761
vt 0.277084 0.020340
vt 0.277084 0.035683
s 0
usemtl set8
f 1/1/1 2/3/1 4/6/1 3/5/1
f 3/5/2 4/6/2 6/8/2 5/7/2
f 5/7/3 6/8/3 8/11/3 7/9/3
f 2/4/4 8/12/4 6/8/4 4/6/4
f 7/10/5 1/2/5 3/5/5 5/7/5
f 10/16/1 9/13/1 31/54/1 32/55/1
s 1
f 29/49/2 19/29/2 10/16/2 32/55/2
f 11/17/3 15/23/3 16/24/3 13/19/3
f 13/19/6 16/24/6 22/35/6 26/43/6
f 15/23/2 24/39/2 21/33/2 12/18/2
f 16/24/3 15/23/3 12/18/3 14/22/3
f 13/19/6 26/43/6 30/51/6 23/37/6
f 11/17/5 13/20/5 23/38/5 19/29/5
s 0
f 21/33/4 20/30/4 14/21/4 12/18/4
s 1
f 31/53/6 9/14/6 23/37/6 30/51/6
f 19/29/5 23/38/5 9/15/5 10/16/5
f 20/31/6 22/35/6 16/24/6 14/22/6
f 19/29/2 29/49/2 25/41/2 11/17/2
f 28/47/6 30/51/6 26/43/6 18/27/6
f 11/17/2 25/41/2 24/39/2 15/23/2
f 29/49/2 27/45/2 17/25/2 25/41/2
s 0
f 29/50/7 32/55/7 31/54/7 30/52/7
f 30/52/8 28/48/8 27/46/8 29/50/8
f 28/48/9 18/28/9 17/26/9 27/46/9
f 18/28/10 26/44/10 25/42/10 17/26/10
f 26/44/11 22/36/11 24/40/11 25/42/11
f 22/36/12 20/32/12 21/34/12 24/40/12
