# This file uses centimeters as units for non-parametric coordinates.

mtllib Debris_Broken.mtl
g default
v 10.402309 5.962521 -13.430379
v 10.718353 5.962521 -13.430379
v 10.402309 6.154318 -13.513414
v 10.718353 6.154318 -13.513414
v 10.402309 5.162666 -15.803970
v 10.718353 5.162666 -15.803970
v 10.402309 4.970868 -15.720935
v 10.718353 4.970868 -15.720935
v 10.340375 5.985892 -13.330491
v 10.340375 6.096094 -13.378201
v 10.340375 5.023210 -15.856389
v 13.040835 5.023210 -15.856389
v 10.340375 4.913008 -15.808678
v 13.040835 4.913008 -15.808678
v 11.613664 5.023210 -15.856389
v 11.619055 4.913008 -15.808678
v 11.996680 5.716864 -14.254159
v 11.984634 5.604365 -14.211757
v 10.340375 5.633226 -14.447348
v 13.040835 5.309906 -14.891907
v 13.040835 5.424587 -14.929271
v 12.003160 5.326466 -14.853657
v 10.340375 5.522110 -14.401751
v 12.015084 5.439298 -14.895293
v 11.779463 5.620200 -14.477439
v 11.765968 5.507613 -14.435238
v 11.960690 5.730346 -14.223018
v 11.948404 5.618493 -14.179121
v 11.397233 5.696574 -14.301025
v 11.381198 5.584496 -14.257651
v 12.282259 5.985892 -13.330491
v 12.294083 6.096094 -13.378201
vt 0.294017 0.090140
vt 0.724682 0.090154
vt 0.724681 0.126216
vt 0.294016 0.126201
vt 0.724677 0.216808
vt 0.294013 0.216793
vt 0.294014 0.180732
vt 0.724679 0.180747
vt 0.031558 0.392493
vt 0.015469 0.392493
vt 0.015469 0.198629
vt 0.031558 0.198629
vt 0.015469 0.035683
vt 0.031558 0.035683
vt 0.374347 0.264127
vt 0.389250 0.264127
vt 0.389250 0.392493
vt 0.374347 0.392493
vt 0.565975 0.020340
vt 0.631130 0.020340
vt 0.631130 0.035683
vt 0.565975 0.035683
vt 0.524759 0.020340
vt 0.524759 0.035683
vt 0.518401 0.020340
vt 0.518401 0.035683
vt 0.164649 0.177559
vt 0.277084 0.035683
vt 0.213284 0.201726
vt 0.236118 0.166424
vt 0.240707 0.170709
vt 0.243471 0.259377
vt 0.193539 0.392493
vt 0.031558 0.407754
vt 0.193539 0.407754
vt 0.243311 0.539658
vt 0.213484 0.597677
vt 0.374347 0.533731
vt 0.374347 0.407754
vt 0.164763 0.622477
vt 0.031558 0.603183
vt 0.236812 0.632991
vt 0.241389 0.628454
vt 0.279755 0.750761
vt 0.031558 0.750761
vt 0.257953 0.180731
vt 0.257955 0.126200
vt 0.760742 0.126217
vt 0.760740 0.180748
vt 0.031558 0.020340
vt 0.277084 0.020340
vt 0.446098 0.020340
vt 0.446098 0.035683
vt 0.761428 0.020340
vt 0.761428 0.035683
vn 0.000000 0.397297 0.917690
vn 0.000000 0.397297 0.917690
vn 0.000000 0.397297 0.917690
vn 0.000000 0.397297 0.917690
vn 0.000000 0.917690 -0.397296
vn 0.000000 0.917690 -0.397296
vn 0.000000 0.917690 -0.397296
vn 0.000000 0.917690 -0.397296
vn 0.000000 -0.397297 -0.917690
vn 0.000000 -0.397297 -0.917690
vn 0.000000 -0.397297 -0.917690
vn 0.000000 -0.397297 -0.917690
vn 1.000000 0.000000 0.000000
vn 1.000000 0.000000 0.000000
vn 1.000000 0.000000 0.000000
vn 1.000000 0.000000 0.000000
vn -1.000000 0.000000 0.000000
vn -1.000000 0.000000 0.000000
vn -1.000000 0.000000 0.000000
vn -1.000000 0.000000 0.000000
vn 0.000000 0.397297 0.917690
vn 0.000000 0.397297 0.917690
vn 0.000000 0.397297 0.917690
vn 0.000000 0.397297 0.917690
vn -0.000000 0.917690 -0.397297
vn -0.000000 0.917690 -0.397297
vn 0.000000 0.917690 -0.397297
vn 0.000000 0.917690 -0.397297
vn 0.000000 -0.397297 -0.917690
vn 0.000000 -0.397297 -0.917690
vn 0.000000 -0.397297 -0.917690
vn 0.000000 -0.397297 -0.917690
vn 0.000000 -0.917690 0.397297
vn 0.000000 -0.917690 0.397297
vn 0.000000 -0.917690 0.397297
vn 0.000000 -0.917690 0.397297
vn 0.000000 0.917690 -0.397297
vn 0.000000 0.917690 -0.397297
vn 0.000000 0.917690 -0.397296
vn 0.000000 0.917690 -0.397296
vn 0.000000 -0.397297 -0.917690
vn 0.000000 -0.397297 -0.917690
vn 0.000000 -0.917690 0.397297
vn 0.000000 -0.917690 0.397297
vn -1.000000 0.000000 0.000000
vn -1.000000 0.000000 0.000000
vn -1.000000 0.000001 -0.000001
vn -1.000000 0.000001 -0.000001
vn 1.000000 -0.000004 0.000002
vn 1.000000 -0.000004 0.000002
vn 1.000000 -0.000004 0.000002
vn 1.000000 -0.000004 0.000002
vn 0.000000 -0.917690 0.397297
vn 0.000000 -0.917690 0.397297
vn -1.000000 0.000003 -0.000001
vn -1.000000 0.000003 -0.000001
vn 0.000000 -0.917690 0.397297
vn 0.000000 -0.917690 0.397297
vn -0.000000 0.917691 -0.397296
vn -0.000000 0.917690 -0.397296
vn 0.000000 -0.917692 0.397293
vn 0.000000 -0.917692 0.397293
vn -0.000000 0.917692 -0.397293
vn -0.000000 0.917692 -0.397293
vn 0.744300 -0.330981 -0.580059
vn 0.744300 -0.330981 -0.580059
vn 0.744300 -0.330981 -0.580059
vn 0.744300 -0.330981 -0.580059
vn -0.149150 0.375378 0.914793
vn -0.149150 0.375378 0.914793
vn -0.149150 0.375378 0.914793
vn -0.149150 0.375378 0.914793
vn 0.689957 0.193478 0.697514
vn 0.689957 0.193478 0.697514
vn 0.689957 0.193478 0.697514
vn 0.689957 0.193478 0.697514
vn 0.744210 -0.307346 -0.593035
vn 0.744210 -0.307346 -0.593035
vn 0.744210 -0.307346 -0.593035
vn 0.744210 -0.307346 -0.593035
vn 0.881505 0.074037 0.466334
vn 0.881505 0.074037 0.466334
vn 0.881505 0.074037 0.466334
vn 0.881505 0.074037 0.466334
vn 0.038007 0.326008 0.944603
vn 0.038007 0.326008 0.944603
vn 0.038007 0.326008 0.944603
vn 0.038007 0.326008 0.944603
s off
g Debris_Broken
usemtl set8
f 1/46/1 2/47/2 4/4/3 3/7/4
f 3/7/5 4/4/6 6/3/7 5/8/8
f 5/8/9 6/3/10 8/48/11 7/49/12
f 2/1/13 8/2/14 6/3/15 4/4/16
f 7/5/17 1/6/18 3/7/19 5/8/20
f 10/14/21 9/50/22 31/51/23 32/28/24
s 1
f 29/27/25 19/12/26 10/14/27 32/28/28
s 2
f 11/9/29 15/33/30 16/35/31 13/34/32
s 3
f 13/34/33 16/35/34 22/36/35 26/37/36
s 1
f 15/33/37 24/32/38 21/15/39 12/18/40
s 2
f 16/35/31 15/33/30 12/18/41 14/39/42
s 3
f 13/34/33 26/37/36 30/40/43 23/41/44
s 5
f 11/9/45 13/10/46 23/11/47 19/12/48
s off
f 21/15/49 20/16/50 14/17/51 12/18/52
s 3
f 31/44/53 9/45/54 23/41/44 30/40/43
s 5
f 19/12/48 23/11/47 9/13/55 10/14/56
s 3
f 20/38/57 22/36/35 16/35/34 14/39/58
s 1
f 19/12/26 29/27/25 25/29/59 11/9/60
s 3
f 28/42/61 30/40/43 26/37/36 18/43/62
s 1
f 11/9/60 25/29/59 24/32/38 15/33/37
f 29/27/25 27/30/63 17/31/64 25/29/59
s off
f 29/53/65 32/28/66 31/51/67 30/52/68
f 30/52/69 28/25/70 27/26/71 29/53/72
f 28/25/73 18/23/74 17/24/75 27/26/76
f 18/23/77 26/19/78 25/22/79 17/24/80
f 26/19/81 22/20/82 24/21/83 25/22/84
f 22/20/85 20/54/86 21/55/87 24/21/88
